<svg xmlns="http://www.w3.org/2000/svg" fill="none" viewBox="0 0 24 24" id="Picture-As-Pdf--Streamline-Rounded-Material" height="24" width="24">
  <desc>
    Picture As Pdf Streamline Icon: https://streamlinehq.com
  </desc>
  <path fill="currentColor" d="M9.2 11.15h1.2c0.26215 0 0.48185 -0.08865 0.659 -0.266 0.17735 -0.17735 0.266 -0.397 0.266 -0.659v-1.2c0 -0.262 -0.08865 -0.48165 -0.266 -0.659 -0.17715 -0.17735 -0.39685 -0.266 -0.659 -0.266h-1.65c-0.12665 0 -0.2375 0.04165 -0.3325 0.125 -0.095 0.08335 -0.1425 0.1951 -0.1425 0.33525v4.2045c0 0.14015 0.0475 0.2519 0.1425 0.33525 0.095 0.08335 0.20585 0.125 0.3325 0.125 0.13335 0 0.24165 -0.0475 0.325 -0.1425 0.08335 -0.095 0.125 -0.20585 0.125 -0.3325v-1.6Zm0 -0.925v-1.2h1.2v1.2h-1.2Zm5.325 3c0.25 0 0.46665 -0.08865 0.65 -0.266 0.18335 -0.17715 0.275 -0.39685 0.275 -0.659v-3.275c0 -0.262 -0.09165 -0.48165 -0.275 -0.659s-0.4 -0.266 -0.65 -0.266H12.9c-0.12665 0 -0.2375 0.04165 -0.3325 0.125 -0.095 0.08335 -0.1425 0.19465 -0.1425 0.334v4.182c0 0.13935 0.0475 0.25485 0.1425 0.3465 0.095 0.09165 0.20585 0.1375 0.3325 0.1375h1.625ZM13.35 12.3v-3.275h1.175v3.275H13.35Zm4.25 -1.15h0.8c0.13335 0 0.24165 -0.0475 0.325 -0.1425 0.08335 -0.095 0.125 -0.20585 0.125 -0.3325 0 -0.13335 -0.04165 -0.24165 -0.125 -0.325 -0.08335 -0.08335 -0.19165 -0.125 -0.325 -0.125h-0.8v-1.2h0.8c0.13335 0 0.24165 -0.0475 0.325 -0.1425 0.08335 -0.095 0.125 -0.20585 0.125 -0.3325 0 -0.13335 -0.04165 -0.24165 -0.125 -0.325 -0.08335 -0.08335 -0.19165 -0.125 -0.325 -0.125h-1.25c-0.12665 0 -0.2375 0.04165 -0.3325 0.125 -0.095 0.08335 -0.1425 0.1951 -0.1425 0.33525v4.2045c0 0.14015 0.0475 0.2519 0.1425 0.33525 0.095 0.08335 0.20585 0.125 0.3325 0.125 0.13335 0 0.24165 -0.0475 0.325 -0.1425 0.08335 -0.095 0.125 -0.20585 0.125 -0.3325v-1.6ZM6.5 19c-0.4 0 -0.75 -0.15 -1.05 -0.45 -0.3 -0.3 -0.45 -0.65 -0.45 -1.05V3.5c0 -0.4 0.15 -0.75 0.45 -1.05 0.3 -0.3 0.65 -0.45 1.05 -0.45h14c0.4 0 0.75 0.15 1.05 0.45 0.3 0.3 0.45 0.65 0.45 1.05v14c0 0.4 -0.15 0.75 -0.45 1.05 -0.3 0.3 -0.65 0.45 -1.05 0.45H6.5Zm0 -1.5h14V3.5H6.5v14Zm-3 4.5c-0.4 0 -0.75 -0.15 -1.05 -0.45 -0.3 -0.3 -0.45 -0.65 -0.45 -1.05V5.75c0 -0.2125 0.072335 -0.39065 0.217 -0.5345 0.1445 -0.14365 0.323665 -0.2155 0.5375 -0.2155 0.213665 0 0.391335 0.07185 0.533 0.2155 0.141665 0.14385 0.2125 0.322 0.2125 0.5345V20.5h14.75c0.2125 0 0.39065 0.07235 0.5345 0.217 0.14365 0.1445 0.2155 0.32365 0.2155 0.5375 0 0.21365 -0.07185 0.39135 -0.2155 0.533 -0.14385 0.14165 -0.322 0.2125 -0.5345 0.2125H3.5Z" stroke-width="0.5"></path>
</svg>