<svg xmlns="http://www.w3.org/2000/svg" fill="none" viewBox="0 0 24 24" id="Scan--Streamline-Rounded-Material" height="24" width="24">
  <desc>
    Scan Streamline Icon: https://streamlinehq.com
  </desc>
  <path fill="#174dff" d="M5.5 22c-0.4125 0 -0.765585 -0.1469 -1.05925 -0.44075C4.146915 21.2656 4 20.9125 4 20.5v-3.5c0 -0.2125 0.072335 -0.39065 0.217 -0.5345 0.1445 -0.14365 0.323665 -0.2155 0.5375 -0.2155 0.213665 0 0.39135 0.07185 0.533 0.2155 0.14165 0.14385 0.2125 0.322 0.2125 0.5345v3.5h13v-3.5c0 -0.2125 0.07235 -0.39065 0.217 -0.5345 0.1445 -0.14365 0.32365 -0.2155 0.5375 -0.2155 0.21365 0 0.39135 0.07185 0.533 0.2155 0.14165 0.14385 0.2125 0.322 0.2125 0.5345v3.5c0 0.4125 -0.14685 0.7656 -0.4405 1.05925C19.26565 21.8531 18.9125 22 18.5 22H5.5ZM4 3.5c0 -0.4125 0.146915 -0.765665 0.44075 -1.0595C4.734415 2.146835 5.0875 2 5.5 2h8.4c0.20735 0 0.405 0.041665 0.593 0.125 0.188 0.083335 0.34865 0.191665 0.482 0.325l4.575 4.575c0.13335 0.13335 0.24165 0.294 0.325 0.482 0.08335 0.188 0.125 0.38565 0.125 0.593V11c0 0.2125 -0.07235 0.3906 -0.217 0.53425 -0.1445 0.14385 -0.32365 0.21575 -0.5375 0.21575 -0.21365 0 -0.39135 -0.0719 -0.533 -0.21575C18.57085 11.3906 18.5 11.2125 18.5 11v-2.85h-3.975c-0.2125 0 -0.3906 -0.0719 -0.53425 -0.21575 -0.14385 -0.14365 -0.21575 -0.32175 -0.21575 -0.53425V3.5H5.5v7.5c0 0.2125 -0.07235 0.3906 -0.217 0.53425 -0.1445 0.14385 -0.323665 0.21575 -0.5375 0.21575 -0.213665 0 -0.391335 -0.0719 -0.533 -0.21575C4.070835 11.3906 4 11.2125 4 11V3.5Zm18.25 11.25h-20.5c-0.2125 0 -0.390585 -0.07235 -0.53425 -0.217C1.071915 14.3885 1 14.20935 1 13.9955c0 -0.21365 0.071915 -0.39135 0.21575 -0.533 0.143665 -0.14165 0.32175 -0.2125 0.53425 -0.2125h20.5c0.2125 0 0.39065 0.07235 0.5345 0.217 0.14365 0.1445 0.2155 0.32365 0.2155 0.5375 0 0.21365 -0.07185 0.39135 -0.2155 0.533 -0.14385 0.14165 -0.322 0.2125 -0.5345 0.2125Z" stroke-width="0.5"></path>
</svg>