<svg xmlns="http://www.w3.org/2000/svg" fill="none" viewBox="0 0 24 24" id="Print--Streamline-Rounded-Material" height="24" width="24">
  <desc>
    Print Streamline Icon: https://streamlinehq.com
  </desc>
  <path fill="currentColor" d="M7.55 21c-0.4125 0 -0.7656 -0.1469 -1.05925 -0.44075C6.1969 20.2656 6.05 19.9125 6.05 19.5v-2.9H3.5c-0.4125 0 -0.765585 -0.1469 -1.05925 -0.44075C2.146915 15.8656 2 15.5125 2 15.1v-4.65c0 -0.75085 0.254165 -1.38025 0.7625 -1.88825C3.270835 8.0539 3.9 7.8 4.65 7.8h14.7c0.75085 0 1.38025 0.2539 1.88825 0.76175C21.7461 9.06975 22 9.69915 22 10.45v4.65c0 0.4125 -0.14685 0.7656 -0.4405 1.05925 -0.29385 0.29385 -0.647 0.44075 -1.0595 0.44075h-2.55V19.5c0 0.4125 -0.14685 0.7656 -0.4405 1.05925 -0.29385 0.29385 -0.647 0.44075 -1.0595 0.44075H7.55ZM3.5 15.1h2.55v-0.4c0 -0.4125 0.1469 -0.76565 0.44075 -1.0595 0.29365 -0.29365 0.64675 -0.4405 1.05925 -0.4405h8.9c0.4125 0 0.76565 0.14685 1.0595 0.4405 0.29365 0.29385 0.4405 0.647 0.4405 1.0595v0.4H20.5v-4.65525c0 -0.32985 -0.11015 -0.6031 -0.3305 -0.81975 -0.2205 -0.21665 -0.49365 -0.325 -0.8195 -0.325H4.65c-0.325835 0 -0.598915 0.11015 -0.81925 0.3305C3.61025 9.851 3.5 10.12415 3.5 10.45v4.65Zm12.95 -7.3V4.5H7.55v3.3h-1.5V4.5c0 -0.4125 0.1469 -0.765665 0.44075 -1.0595C6.7844 3.146835 7.1375 3 7.55 3h8.9c0.4125 0 0.76565 0.146835 1.0595 0.4405 0.29365 0.293835 0.4405 0.647 0.4405 1.0595v3.3h-1.5Zm2.025 3.875c0.2 0 0.375 -0.075 0.525 -0.225 0.15 -0.15 0.225 -0.325 0.225 -0.525s-0.075 -0.375 -0.225 -0.525c-0.15 -0.15 -0.325 -0.225 -0.525 -0.225s-0.375 0.075 -0.525 0.225c-0.15 0.15 -0.225 0.325 -0.225 0.525s0.075 0.375 0.225 0.525c0.15 0.15 0.325 0.225 0.525 0.225ZM16.45 19.5v-4.8H7.55V19.5h8.9Z" stroke-width="0.5"></path>
</svg>